<svg width="35" height="35" viewBox="0 0 35 35" fill="none" xmlns="http://www.w3.org/2000/svg">
<path d="M17.5 0.416672C8.10419 0.416672 0.416687 8.10417 0.416687 17.5C0.416687 26.8958 8.10419 34.5833 17.5 34.5833C26.8959 34.5833 34.5834 26.8958 34.5834 17.5C34.5834 8.10417 26.8959 0.416672 17.5 0.416672ZM17.5 31.1667C9.96627 31.1667 3.83335 25.0338 3.83335 17.5C3.83335 9.96626 9.96627 3.83334 17.5 3.83334C25.0338 3.83334 31.1667 9.96626 31.1667 17.5C31.1667 25.0338 25.0338 31.1667 17.5 31.1667ZM18.3542 8.95834H15.7917V19.2083L24.675 24.675L26.0417 22.4542L18.3542 17.8417V8.95834Z" fill="white" fill-opacity="0.5"/>
</svg>
