<svg width="18" height="18" viewBox="0 0 18 18" fill="none" xmlns="http://www.w3.org/2000/svg">
<path d="M3 14C3 12 7 10.9 9 10.9C11 10.9 15 12 15 14V15H3V14ZM12 6C12 6.79565 11.6839 7.55871 11.1213 8.12132C10.5587 8.68393 9.79565 9 9 9C8.20435 9 7.44129 8.68393 6.87868 8.12132C6.31607 7.55871 6 6.79565 6 6C6 5.20435 6.31607 4.44129 6.87868 3.87868C7.44129 3.31607 8.20435 3 9 3C9.79565 3 10.5587 3.31607 11.1213 3.87868C11.6839 4.44129 12 5.20435 12 6ZM0 2V16C0 16.5304 0.210714 17.0391 0.585786 17.4142C0.960859 17.7893 1.46957 18 2 18H16C16.5304 18 17.0391 17.7893 17.4142 17.4142C17.7893 17.0391 18 16.5304 18 16V2C18 1.46957 17.7893 0.960859 17.4142 0.585786C17.0391 0.210714 16.5304 0 16 0H2C0.89 0 0 0.9 0 2Z" fill="url(#paint0_linear)"/>
<defs>
<linearGradient id="paint0_linear" x1="9" y1="0" x2="9" y2="18" gradientUnits="userSpaceOnUse">
<stop stop-color="#FA4F44"/>
<stop offset="0.213024" stop-color="#FB575B"/>
<stop offset="0.998056" stop-color="#FE6C99" stop-opacity="0.912689"/>
<stop offset="0.9999" stop-color="#FC5E6F" stop-opacity="0.494792"/>
<stop offset="1" stop-color="#FE6C99" stop-opacity="0"/>
</linearGradient>
</defs>
</svg>
