<svg width="29" height="31" viewBox="0 0 29 31" fill="none" xmlns="http://www.w3.org/2000/svg">
<path d="M14.5 0.125C6.94915 0.125 0.833313 3.18292 0.833313 6.95833C0.833313 10.7338 6.94915 13.7917 14.5 13.7917C22.0508 13.7917 28.1666 10.7338 28.1666 6.95833C28.1666 3.18292 22.0508 0.125 14.5 0.125ZM0.833313 10.375V15.5C0.833313 19.2754 6.94915 22.3333 14.5 22.3333C22.0508 22.3333 28.1666 19.2754 28.1666 15.5V10.375C28.1666 14.1504 22.0508 17.2083 14.5 17.2083C6.94915 17.2083 0.833313 14.1504 0.833313 10.375ZM0.833313 18.9167V24.0417C0.833313 27.8171 6.94915 30.875 14.5 30.875C22.0508 30.875 28.1666 27.8171 28.1666 24.0417V18.9167C28.1666 22.6921 22.0508 25.75 14.5 25.75C6.94915 25.75 0.833313 22.6921 0.833313 18.9167Z" fill="white" fill-opacity="0.5"/>
</svg>
