<svg width="29" height="29" viewBox="0 0 29 29" fill="none" xmlns="http://www.w3.org/2000/svg">
<path d="M14.5 4.07918C16.4816 4.07918 18.0875 5.68501 18.0875 7.66668C18.0875 9.64834 16.4816 11.2542 14.5 11.2542C12.5183 11.2542 10.9125 9.64834 10.9125 7.66668C10.9125 5.68501 12.5183 4.07918 14.5 4.07918ZM14.5 19.4542C19.5737 19.4542 24.9208 21.9483 24.9208 23.0417V24.9208H4.07915V23.0417C4.07915 21.9483 9.42623 19.4542 14.5 19.4542ZM14.5 0.833344C10.7246 0.833344 7.66665 3.89126 7.66665 7.66668C7.66665 11.4421 10.7246 14.5 14.5 14.5C18.2754 14.5 21.3333 11.4421 21.3333 7.66668C21.3333 3.89126 18.2754 0.833344 14.5 0.833344ZM14.5 16.2083C9.93873 16.2083 0.833313 18.4975 0.833313 23.0417V28.1667H28.1666V23.0417C28.1666 18.4975 19.0612 16.2083 14.5 16.2083Z" fill="white" fill-opacity="0.5"/>
</svg>
