<svg width="35" height="35" viewBox="0 0 35 35" fill="none" xmlns="http://www.w3.org/2000/svg">
<path d="M30.1929 19.1742C30.2612 18.6275 30.3125 18.0808 30.3125 17.5C30.3125 16.9192 30.2612 16.3725 30.1929 15.8258L33.7975 13.0071C34.1221 12.7508 34.2075 12.2896 34.0025 11.9137L30.5858 6.00291C30.4321 5.72958 30.1416 5.57583 29.8341 5.57583C29.7316 5.57583 29.6291 5.59291 29.5437 5.62708L25.29 7.33541C24.4016 6.65208 23.445 6.08833 22.4029 5.66125L21.7537 1.13416C21.7025 0.724164 21.3437 0.416664 20.9166 0.416664H14.0833C13.6562 0.416664 13.2975 0.724164 13.2462 1.13416L12.5971 5.66125C11.555 6.08833 10.5983 6.66916 9.70997 7.33541L5.45622 5.62708C5.35372 5.59291 5.25122 5.57583 5.14872 5.57583C4.8583 5.57583 4.56789 5.72958 4.41414 6.00291L0.99747 11.9137C0.775386 12.2896 0.877887 12.7508 1.20247 13.0071L4.80705 15.8258C4.73872 16.3725 4.68747 16.9362 4.68747 17.5C4.68747 18.0637 4.73872 18.6275 4.80705 19.1742L1.20247 21.9929C0.877887 22.2492 0.79247 22.7104 0.99747 23.0862L4.41414 28.9971C4.56789 29.2704 4.8583 29.4242 5.1658 29.4242C5.2683 29.4242 5.3708 29.4071 5.45622 29.3729L9.70997 27.6646C10.5983 28.3479 11.555 28.9117 12.5971 29.3387L13.2462 33.8658C13.2975 34.2758 13.6562 34.5833 14.0833 34.5833H20.9166C21.3437 34.5833 21.7025 34.2758 21.7537 33.8658L22.4029 29.3387C23.445 28.9117 24.4016 28.3308 25.29 27.6646L29.5437 29.3729C29.6462 29.4071 29.7487 29.4242 29.8512 29.4242C30.1416 29.4242 30.4321 29.2704 30.5858 28.9971L34.0025 23.0862C34.2075 22.7104 34.1221 22.2492 33.7975 21.9929L30.1929 19.1742V19.1742ZM26.8104 16.2529C26.8787 16.7825 26.8958 17.1412 26.8958 17.5C26.8958 17.8587 26.8616 18.2346 26.8104 18.7471L26.5712 20.6775L28.0916 21.8733L29.9366 23.3083L28.7408 25.3754L26.5712 24.5042L24.7946 23.7867L23.2571 24.9483C22.5225 25.495 21.8221 25.905 21.1216 26.1954L19.3108 26.93L19.0375 28.8604L18.6958 31.1667H16.3041L15.9796 28.8604L15.7062 26.93L13.8954 26.1954C13.1608 25.8879 12.4775 25.495 11.7941 24.9825L10.2396 23.7867L8.42872 24.5212L6.25914 25.3925L5.0633 23.3254L6.9083 21.8904L8.42872 20.6946L8.18955 18.7642C8.1383 18.2346 8.10414 17.8417 8.10414 17.5C8.10414 17.1583 8.1383 16.7654 8.18955 16.2529L8.42872 14.3225L6.9083 13.1267L5.0633 11.6917L6.25914 9.62458L8.42872 10.4958L10.2054 11.2133L11.7429 10.0517C12.4775 9.505 13.1779 9.095 13.8783 8.80458L15.6891 8.07L15.9625 6.13958L16.3041 3.83333H18.6787L19.0033 6.13958L19.2766 8.07L21.0875 8.80458C21.8221 9.11208 22.5054 9.505 23.1887 10.0175L24.7433 11.2133L26.5541 10.4787L28.7237 9.6075L29.9196 11.6746L28.0916 13.1267L26.5712 14.3225L26.8104 16.2529ZM17.5 10.6667C13.7246 10.6667 10.6666 13.7246 10.6666 17.5C10.6666 21.2754 13.7246 24.3333 17.5 24.3333C21.2754 24.3333 24.3333 21.2754 24.3333 17.5C24.3333 13.7246 21.2754 10.6667 17.5 10.6667ZM17.5 20.9167C15.6208 20.9167 14.0833 19.3792 14.0833 17.5C14.0833 15.6208 15.6208 14.0833 17.5 14.0833C19.3791 14.0833 20.9166 15.6208 20.9166 17.5C20.9166 19.3792 19.3791 20.9167 17.5 20.9167Z" fill="white" fill-opacity="0.5"/>
</svg>
