<svg width="29" height="35" viewBox="0 0 29 35" fill="none" xmlns="http://www.w3.org/2000/svg">
<path d="M17.9166 0.416656H4.24998C3.34382 0.416656 2.47478 0.776626 1.83403 1.41737C1.19328 2.05812 0.833313 2.92717 0.833313 3.83332V31.1667C0.833313 32.0728 1.19328 32.9419 1.83403 33.5826C2.47478 34.2234 3.34382 34.5833 4.24998 34.5833H24.75C25.6561 34.5833 26.5252 34.2234 27.1659 33.5826C27.8067 32.9419 28.1666 32.0728 28.1666 31.1667V10.6667L17.9166 0.416656ZM24.75 31.1667H4.24998V3.83332H16.2083V12.375H24.75V31.1667ZM11.0833 19.2083H5.95831V15.7917H11.0833V19.2083ZM17.9166 19.2083H12.7916V15.7917H17.9166V19.2083ZM11.0833 24.3333H5.95831V20.9167H11.0833V24.3333ZM17.9166 24.3333H12.7916V20.9167H17.9166V24.3333ZM11.0833 29.4583H5.95831V26.0417H11.0833V29.4583ZM17.9166 29.4583H12.7916V26.0417H17.9166V29.4583Z" fill="white" fill-opacity="0.5"/>
</svg>
